# xmcd
#
# Track frame offsets:
#   150
#   10974
#   29177
#   37976
#   48387
#   64258
#   72108
#   89133
#   101794
#   110758
#   130981
#   143486
#   153282
#   163607
#   179055
#   191517
#   200729
#   212790
#
# Disc length: 3034 seconds
#
# Revision: 0
# Processed by: cddbd v1.5.1PL2 Copyright (c) Steve Scherf et al.
# Submitted via: GXTranscoder 2.0.1939
#
DISCID=140bd812
DTITLE=REPREZENTACYJNY ZESPOL ARTYSTYCZNY WOJSKA POLSKIEGO - Tradycyjne koledy polskie
DYEAR=2004
DGENRE=Gospel and Religious
TTITLE0=Bracia patrzcie jeno
TTITLE1=Lulajze Jezuniu
TTITLE2=W Betlejem w stajence
TTITLE3=Jezus malusienki
TTITLE4=Dzisiaj w Betlejem
TTITLE5=Przystapmy do szopy
TTITLE6=Koleda wojenna
TTITLE7=Oj maluski malski
TTITLE8=Przybiezeli do Betlejem
TTITLE9=Gdy Sliczna Panna syna kolysala
TTITLE10=Do szopy hej pasterze
TTITLE11=Z narodzenia Pana
TTITLE12=Aniol pasterzom mowil
TTITLE13=Nie bylo miejsca dla Ciebie
TTITLE14=Medrcy swiata monarchowie
TTITLE15=Tryumfy Krola Niebieskiego
TTITLE16=Cicha noc
TTITLE17=Bog sie rodzi
EXTD=
EXTT0=
EXTT1=
EXTT2=
EXTT3=
EXTT4=
EXTT5=
EXTT6=
EXTT7=
EXTT8=
EXTT9=
EXTT10=
EXTT11=
EXTT12=
EXTT13=
EXTT14=
EXTT15=
EXTT16=
EXTT17=
PLAYORDER=
